HIERARCHY
ROOT Hips
{
  OFFSET 60.5173 86.6705 34.7411
  CHANNELS 6 Xposition Yposition Zposition Zrotation Xrotation Yrotation
  JOINT spine
  {
    OFFSET 0 6.84637 0.3937
    CHANNELS 3 Zrotation Xrotation Yrotation
    JOINT spine1
    {
      OFFSET 0 9.49621 0
      CHANNELS 3 Zrotation Xrotation Yrotation
      JOINT spine2
      {
        OFFSET 0 9.09909 0
        CHANNELS 3 Zrotation Xrotation Yrotation
        JOINT Neck
        {
          OFFSET 0 23.3612 1.11378
          CHANNELS 3 Zrotation Xrotation Yrotation
          JOINT Head
          {
            OFFSET 0 7.05802 0
            CHANNELS 3 Zrotation Xrotation Yrotation
            End Site
            {
              OFFSET 0 17.0844 -5.63419
            }
          }
        }
        JOINT RightShoulder
        {
          OFFSET -3.83136 9.82631 -0.533491
          CHANNELS 3 Zrotation Xrotation Yrotation
          JOINT RightArm
          {
            OFFSET 0 12.8881 0
            CHANNELS 3 Zrotation Xrotation Yrotation
            JOINT RightArmRoll
            {
              OFFSET 0 6.50617 0
              CHANNELS 3 Zrotation Xrotation Yrotation
              JOINT RightForeArm
              {
                OFFSET 0 18.9501 0
                CHANNELS 3 Zrotation Xrotation Yrotation
                JOINT RightForeArmRoll
                {
                  OFFSET 0 7.30093 0
                  CHANNELS 3 Zrotation Xrotation Yrotation
                  JOINT RightHand
                  {
                    OFFSET 0 14.6514 0
                    CHANNELS 3 Zrotation Xrotation Yrotation
                    End Site
                    {
                      OFFSET 0 0 0
                    }
                  }
                }
              }
            }
          }
        }
        JOINT LeftShoulder
        {
          OFFSET 3.83136 9.82631 -0.533491
          CHANNELS 3 Zrotation Xrotation Yrotation
          JOINT LeftArm
          {
            OFFSET 0 12.8881 0
            CHANNELS 3 Zrotation Xrotation Yrotation
            JOINT LeftArmRoll
            {
              OFFSET 0 6.50617 0
              CHANNELS 3 Zrotation Xrotation Yrotation
              JOINT LeftForeArm
              {
                OFFSET 0 18.9501 0
                CHANNELS 3 Zrotation Xrotation Yrotation
                JOINT LeftForeArmRoll
                {
                  OFFSET 0 7.30093 0
                  CHANNELS 3 Zrotation Xrotation Yrotation
                  JOINT LeftHand
                  {
                    OFFSET 0 14.6514 0
                    CHANNELS 3 Zrotation Xrotation Yrotation
                    End Site
                    {
                      OFFSET 0 0 0
                    }
                  }
                }
              }
            }
          }
        }
      }
    }
  }
  JOINT RightUpLeg
  {
    OFFSET -6.06837 -1.11278 -0.933477
    CHANNELS 3 Zrotation Xrotation Yrotation
    JOINT RightUpLegRoll
    {
      OFFSET 0 17.1796 0
      CHANNELS 3 Zrotation Xrotation Yrotation
      JOINT RightLeg
      {
        OFFSET 0 -21.2743 0
        CHANNELS 3 Zrotation Xrotation Yrotation
        JOINT RightLegRoll
        {
          OFFSET 0 21.3439 0
          CHANNELS 3 Zrotation Xrotation Yrotation
          JOINT RightFoot
          {
            OFFSET 0 17.7652 0
            CHANNELS 3 Zrotation Xrotation Yrotation
            JOINT RightToeBase
            {
              OFFSET 0 14.8508 0
              CHANNELS 3 Zrotation Xrotation Yrotation
              End Site
              {
                OFFSET 0.0062947 7.19213 -0.829005
              }
            }
          }
        }
      }
    }
  }
  JOINT LeftUpLeg
  {
    OFFSET 6.06837 -1.11278 -0.933477
    CHANNELS 3 Zrotation Xrotation Yrotation
    JOINT LeftUpLegRoll
    {
      OFFSET 0 17.1797 0
      CHANNELS 3 Zrotation Xrotation Yrotation
      JOINT LeftLeg
      {
        OFFSET 0 21.2742 0
        CHANNELS 3 Zrotation Xrotation Yrotation
        JOINT LeftLegRoll
        {
          OFFSET 0 21.5412 0
          CHANNELS 3 Zrotation Xrotation Yrotation
          JOINT LeftFoot
          {
            OFFSET 0 17.5679 0
            CHANNELS 3 Zrotation Xrotation Yrotation
            JOINT LeftToeBase
            {
              OFFSET 0 14.8508 0
              CHANNELS 3 Zrotation Xrotation Yrotation
              End Site
              {
                OFFSET -0.0282102 7.19213 -0.829005
              }
            }
          }
        }
      }
    }
  }
}
MOTION
Frames: 12
Frame Time: 0.00208333
59.3156 78.6589 26.6255 2.13183 6.96316 -5.31433 0.711496 -2.00457 -0.1757 1.41687 -0.00925249 -0.418823 1.42236 1.6355 -0.442648 -24.655 7.59356 0.335879 21.8052 14.2828 -6.90236 3.44944 -10.4405 -6.68083 -56.0852 49.1828 173.348 7.13664e-006 -3.74823e-006 -1.11823e-005 -9.89624 10.8835 2.16491 -1.28452e-005 -5.25243e-006 -3.00397 8.03008 -4.95138 0.697729 -32.2484 -11.6801 7.8312 69.6844 45.2415 -167.321 -3.74744e-007 2.6614e-008 -2.92708e-007 7.87729 6.50975 -2.2781 6.50927e-006 -1.13405e-006 3.00651 -8.03044 -4.95136 -0.697709 169.073 38.9311 8.02734 -180 7.01621e-015 179.316 175.067 57.7226 -178.133 1.11398e-006 3.14741e-006 1.12252 -83.6621 84.1058 88.467 8.13006 25.233 -3.48499 -173.797 33.7312 -9.09358 4.54188e-006 -4.6773e-006 -0.627736 -15.2001 -56.0148 -8.33701 -1.60676e-006 -2.56942e-006 -0.378011 121.124 81.7105 -118.02 -8.13344 25.2528 3.48788 
59.343 78.6137 26.6334 2.15039 6.92027 -5.29885 0.700919 -1.9934 -0.177771 1.39574 0.0131235 -0.422091 1.40127 1.65789 -0.445566 -24.5762 7.55339 0.285496 21.7279 14.2702 -6.9189 3.53959 -10.4418 -6.68219 -55.7626 49.408 172.911 7.13664e-006 -3.74823e-006 -1.11823e-005 -9.7726 10.9495 2.13287 -1.28451e-005 -5.25243e-006 -3.00398 8.03008 -4.95138 0.697729 -32.199 -11.6503 7.80168 69.4266 45.7014 -166.869 -3.74744e-007 2.6614e-008 -2.92708e-007 7.50021 6.81714 -2.21528 6.50927e-006 -1.13405e-006 3.00649 -8.03044 -4.95136 -0.697709 169.012 38.9177 8.09043 -180 7.01621e-015 179.317 175.067 57.8063 -178.131 1.11398e-006 3.14741e-006 1.12645 -84.1079 84.1117 88.9207 8.12999 25.233 -3.48496 -173.809 33.7249 -9.10761 4.54188e-006 -4.6773e-006 -0.631589 -15.1731 -56.091 -8.32437 -1.60676e-006 -2.56942e-006 -0.389096 121.331 81.7004 -118.26 -8.13349 25.2543 3.48808 
59.3342 78.6092 26.6424 2.16794 6.87963 -5.27999 0.690104 -1.98327 -0.180403 1.37412 0.0334098 -0.426443 1.37971 1.67818 -0.44956 -24.4908 7.51027 0.231823 21.6463 14.2585 -6.93646 3.63544 -10.4438 -6.68474 -55.4264 49.6413 172.446 7.13664e-006 -3.74823e-006 -1.11823e-005 -9.64152 11.0108 2.09789 -1.28451e-005 -5.25243e-006 -3.004 8.03008 -4.95138 0.697729 -32.1456 -11.6211 7.77286 69.1516 46.1809 -166.386 -3.74744e-007 2.6614e-008 -2.92708e-007 7.09638 7.13763 -2.14786 6.50927e-006 -1.13405e-006 3.00647 -8.03044 -4.95136 -0.697709 168.947 38.9009 8.15914 -180 7.01621e-015 179.317 175.054 57.8781 -178.123 1.11398e-006 3.14741e-006 1.12873 -84.4938 84.1157 89.3082 8.12993 25.233 -3.48494 -173.824 33.7172 -9.11636 4.54188e-006 -4.6773e-006 -0.635554 -15.1399 -56.1578 -8.30684 -1.60676e-006 -2.56942e-006 -0.400317 121.503 81.6932 -118.467 -8.13355 25.2558 3.48827 
59.3607 78.5699 26.6535 2.18429 6.84132 -5.25782 0.679213 -1.97428 -0.183426 1.35233 0.0514202 -0.431553 1.35799 1.6962 -0.454309 -24.3995 7.46546 0.175256 21.5606 14.2475 -6.95504 3.73628 -10.4461 -6.68788 -55.0791 49.8828 171.956 7.13664e-006 -3.74823e-006 -1.11823e-005 -9.50346 11.0641 2.06026 -1.28452e-005 -5.25243e-006 -3.00401 8.03008 -4.95138 0.697729 -32.0895 -11.5918 7.74408 68.8599 46.673 -165.882 -3.74744e-007 2.6614e-008 -2.92708e-007 6.6773 7.46207 -2.07783 6.50927e-006 -1.13405e-006 3.00646 -8.03044 -4.95136 -0.697709 168.879 38.8806 8.23159 -180 7.01621e-015 179.318 175.031 57.9381 -178.109 1.11398e-006 3.14741e-006 1.12954 -84.822 84.1181 89.6328 8.12986 25.233 -3.48491 -173.841 33.7077 -9.12035 4.54188e-006 -4.6773e-006 -0.639563 -15.1017 -56.2149 -8.285 -1.60676e-006 -2.56942e-006 -0.411494 121.641 81.6885 -118.64 -8.13361 25.2573 3.48846 
59.3432 78.5894 26.6798 2.19927 6.80544 -5.2324 0.66841 -1.96651 -0.186669 1.33072 0.066969 -0.437097 1.33644 1.71176 -0.459494 -24.3029 7.42022 0.116188 21.471 14.237 -6.97462 3.84139 -10.4484 -6.69099 -54.7234 50.133 171.443 7.13664e-006 -3.74823e-006 -1.11823e-005 -9.35888 11.1065 2.02025 -1.28452e-005 -5.25243e-006 -3.00402 8.03008 -4.95138 0.697729 -32.0322 -11.562 7.71468 68.5527 47.1708 -165.369 -3.74744e-007 2.6614e-008 -2.92708e-007 6.25458 7.7813 -2.00719 6.50927e-006 -1.13405e-006 3.00645 -8.03044 -4.95136 -0.697709 168.81 38.8566 8.30588 -180 -7.01621e-015 179.32 175 57.9862 -178.091 1.11398e-006 3.14741e-006 1.12905 -85.0951 84.1192 89.8982 8.12979 25.233 -3.48488 -173.859 33.6962 -9.12016 4.54188e-006 -4.6773e-006 -0.64355 -15.0593 -56.262 -8.25944 -1.60676e-006 -2.56942e-006 -0.422446 121.745 81.6865 -118.78 -8.13367 25.2588 3.48865 
59.3688 78.5498 26.6862 2.2127 6.7721 -5.2038 0.657859 -1.96007 -0.189962 1.3096 0.0798699 -0.442748 1.31539 1.72467 -0.464795 -24.2016 7.37581 0.0550144 21.3778 14.2266 -6.9952 3.95006 -10.4503 -6.69344 -54.3618 50.3919 170.911 7.13664e-006 -3.74823e-006 -1.11823e-005 -9.20826 11.1349 1.97815 -1.28452e-005 -5.25243e-006 -3.00403 8.03008 -4.95138 0.697729 -31.975 -11.531 7.68402 68.2324 47.6679 -164.861 -3.74744e-007 2.6614e-008 -2.92708e-007 5.83991 8.08615 -1.93795 6.50927e-006 -1.13405e-006 3.00643 -8.03044 -4.95136 -0.697709 168.742 38.8288 8.38011 -180 3.24589e-014 179.322 174.963 58.0224 -178.07 1.11398e-006 3.14742e-006 1.12745 -85.3155 84.1192 90.1076 8.12973 25.233 -3.48485 -173.878 33.6825 -9.11631 4.54188e-006 -4.6773e-006 -0.647447 -15.0137 -56.2986 -8.23077 -1.60676e-006 -2.56942e-006 -0.43299 121.816 81.687 -118.886 -8.13372 25.2602 3.48883 
59.3809 78.5671 26.6702 2.2244 6.7414 -5.1721 0.647723 -1.95504 -0.193135 1.28931 0.0899372 -0.448182 1.29516 1.73474 -0.469892 -24.0963 7.33349 -0.00787326 21.2812 14.2161 -7.01677 4.06156 -10.4513 -6.69464 -53.9968 50.6601 170.363 7.13664e-006 -3.74823e-006 -1.11823e-005 -9.05209 11.1463 1.93424 -1.28452e-005 -5.25243e-006 -3.00405 8.03008 -4.95138 0.697729 -31.9194 -11.4982 7.65143 67.9025 48.158 -164.37 -3.74744e-007 2.6614e-008 -2.92708e-007 5.44506 8.36747 -1.87211 6.50927e-006 -1.13405e-006 3.00642 -8.03044 -4.95136 -0.697709 168.675 38.797 8.4524 -180 7.01622e-015 179.324 174.922 58.0466 -178.048 1.11398e-006 3.14742e-006 1.1249 -85.486 84.1184 90.2648 8.12966 25.233 -3.48482 -173.898 33.6662 -9.10937 4.54188e-006 -4.6773e-006 -0.651188 -14.966 -56.3246 -8.19961 -1.60676e-006 -2.56942e-006 -0.442947 121.854 81.6898 -118.958 -8.13377 25.2616 3.489 
59.3964 78.538 26.6876 2.23418 6.71343 -5.13737 0.638165 -1.95152 -0.196017 1.27018 0.0969848 -0.453073 1.27607 1.7418 -0.474466 -23.9876 7.29453 -0.0720829 21.1815 14.2052 -7.03932 4.17519 -10.4513 -6.69394 -53.6313 50.9379 169.802 7.13664e-006 -3.74823e-006 -1.11823e-005 -8.89088 11.1376 1.88881 -1.28452e-005 -5.25243e-006 -3.00406 8.03008 -4.95138 0.697729 -31.8667 -11.4631 7.61626 67.5671 48.6355 -163.911 -3.74744e-007 2.6614e-008 -2.92708e-007 5.08188 8.61609 -1.8117 6.50927e-006 -1.13405e-006 3.0064 -8.03044 -4.95136 -0.697709 168.611 38.7611 8.52086 -180 7.01622e-015 179.326 174.878 58.0589 -178.025 1.11398e-006 3.14742e-006 1.12159 -85.6089 84.117 90.3735 8.12959 25.233 -3.48479 -173.917 33.647 -9.09988 4.54188e-006 -4.6773e-006 -0.654704 -14.9171 -56.3394 -8.16656 -1.60676e-006 -2.56942e-006 -0.452134 121.859 81.695 -118.997 -8.13381 25.2628 3.48915 
59.3868 78.565 26.7037 2.24187 6.6883 -5.09966 0.629347 -1.94961 -0.198437 1.25252 0.100827 -0.457096 1.25846 1.74564 -0.478195 -23.8761 7.26019 -0.137224 21.0788 14.1936 -7.06284 4.29022 -10.4497 -6.69075 -53.2679 51.2257 169.232 7.13664e-006 -3.74823e-006 -1.11823e-005 -8.72515 11.1058 1.84215 -1.28451e-005 -5.25243e-006 -3.00407 8.03008 -4.95138 0.697729 -31.8182 -11.425 7.57787 67.2317 49.0946 -163.499 -3.74744e-007 2.6614e-008 -2.92708e-007 4.7623 8.82286 -1.75873 6.50927e-006 -1.13405e-006 3.00639 -8.03044 -4.95136 -0.697709 168.553 38.721 8.5836 -180 3.24589e-014 179.328 174.835 58.0591 -178.003 1.11398e-006 3.14742e-006 1.11769 -85.6873 84.1152 90.4374 8.12953 25.2331 -3.48477 -173.936 33.6248 -9.08838 4.54188e-006 -4.6773e-006 -0.65793 -14.8681 -56.3427 -8.13228 -1.60676e-006 -2.56942e-006 -0.46037 121.833 81.7023 -119 -8.13384 25.2639 3.48929 
59.4117 78.5423 26.712 2.24727 6.66611 -5.05906 0.621434 -1.94939 -0.200227 1.23668 0.101277 -0.459926 1.24265 1.7461 -0.480761 -23.7624 7.23174 -0.202905 20.9736 14.1812 -7.08732 4.40594 -10.4462 -6.68444 -52.9094 51.5242 168.655 7.13664e-006 -3.74823e-006 -1.11823e-005 -8.55543 11.0479 1.79456 -1.28452e-005 -5.25243e-006 -3.00409 8.03008 -4.95138 0.697729 -31.7754 -11.3834 7.5356 66.9026 49.5301 -163.15 -3.74744e-007 2.6614e-008 -2.92708e-007 4.49826 8.9786 -1.71525 6.50927e-006 -1.13405e-006 3.00637 -8.03044 -4.95136 -0.697709 168.501 38.6765 8.63874 -180 7.01623e-015 179.33 174.795 58.0474 -177.982 1.11398e-006 3.14742e-006 1.11338 -85.724 84.1133 90.4605 8.12946 25.2331 -3.48474 -173.953 33.5991 -9.07544 4.54188e-006 -4.6773e-006 -0.660799 -14.82 -56.3342 -8.09738 -1.60676e-006 -2.56942e-006 -0.467474 121.774 81.7117 -118.97 -8.13386 25.2649 3.4894 
59.3939 78.5785 26.7152 2.2502 6.64695 -5.01563 0.614588 -1.95097 -0.201214 1.22297 0.0981498 -0.461238 1.22895 1.74298 -0.481843 -23.647 7.21043 -0.268739 20.866 14.1675 -7.11276 4.52164 -10.4404 -6.6744 -52.5585 51.8339 168.075 7.13664e-006 -3.74823e-006 -1.11823e-005 -8.38227 10.9607 1.74633 -1.28452e-005 -5.25243e-006 -3.0041 8.03008 -4.95138 0.697729 -31.7396 -11.3376 7.48879 66.5867 49.9368 -162.88 -3.74744e-007 2.6614e-008 -2.92708e-007 4.30171 9.07416 -1.68328 6.50927e-006 -1.13405e-006 3.00636 -8.03044 -4.95136 -0.697709 168.457 38.6276 8.68442 -180 7.01623e-015 179.333 174.758 58.0236 -177.965 1.11398e-006 3.14742e-006 1.10883 -85.7216 84.1113 90.4463 8.12939 25.2331 -3.48471 -173.969 33.5697 -9.06159 4.54188e-006 -4.6773e-006 -0.663243 -14.7738 -56.3136 -8.0625 -1.60676e-006 -2.56942e-006 -0.473266 121.683 81.7231 -118.904 -8.13388 25.2657 3.48948 
59.419 78.5632 26.7291 2.25048 6.63093 -4.96943 0.608973 -1.95443 -0.20123 1.21173 0.091259 -0.460705 1.2177 1.73609 -0.481122 -23.5307 7.19753 -0.334336 20.7561 14.1524 -7.13914 4.63659 -10.4321 -6.66001 -52.2183 52.1556 167.495 7.13664e-006 -3.74823e-006 -1.11823e-005 -8.2062 10.8414 1.69777 -1.28452e-005 -5.25243e-006 -3.00411 8.03008 -4.95138 0.697729 -31.7122 -11.2871 7.43681 66.2917 50.3094 -162.707 -3.74744e-007 2.6614e-008 -2.92708e-007 4.18458 9.10037 -1.66487 6.50927e-006 -1.13405e-006 3.00635 -8.03044 -4.95136 -0.697709 168.423 38.5742 8.71877 -180 7.01624e-015 179.335 174.729 57.9877 -177.952 1.11398e-006 3.14742e-006 1.10422 -85.6829 84.1095 90.3987 8.12933 25.2331 -3.48468 -173.983 33.5364 -9.04739 4.54188e-006 -4.6773e-006 -0.665195 -14.7305 -56.2804 -8.0283 -1.60676e-006 -2.56942e-006 -0.477563 121.56 81.7362 -118.802 -8.13387 25.2663 3.48953 
